<svg width="15" height="13" viewBox="0 0 15 13" fill="none" xmlns="http://www.w3.org/2000/svg">
<path fill-rule="evenodd" clip-rule="evenodd" d="M0.934835 5.84858C0.618678 5.8921 0.375 6.16713 0.375 6.49991C0.375 6.86295 0.664997 7.15725 1.02273 7.15725L12.4083 7.15725L8.29538 11.3144L8.23252 11.388C8.04384 11.6449 8.064 12.0102 8.29349 12.244C8.54591 12.5012 8.95603 12.5021 9.20951 12.2459L14.4252 6.97469C14.4563 6.94448 14.4844 6.91115 14.5091 6.87521C14.6857 6.61851 14.6608 6.26244 14.4345 6.03376L9.20947 0.754029L9.13669 0.690542C8.88271 0.500158 8.52291 0.522161 8.29345 0.756031C8.04104 1.01329 8.04192 1.42949 8.29542 1.68564L12.4093 5.84258L1.02273 5.84258L0.934835 5.84858Z" fill="#F90000"/>
</svg>
